<?xml version="1.0" encoding="UTF-8" standalone="no"?>
<!DOCTYPE svg PUBLIC "-//W3C//DTD SVG 1.1//EN" "http://www.w3.org/Graphics/SVG/1.1/DTD/svg11.dtd">
<svg version="1.1" xmlns="http://www.w3.org/2000/svg" xmlns:xlink="http://www.w3.org/1999/xlink" preserveAspectRatio="xMidYMid meet" viewBox="0 0 640 640" width="640" height="640"><defs><path d="M587.87 390.72C573.1 390.71 454.89 390.63 440.12 390.62C445.73 421.91 453.85 473.78 453.53 478.68C450.43 525.06 420.86 581.51 419.59 583.82C414.19 593.86 386.97 607.48 359.57 601.64C324.14 594.06 320.53 571.46 320.67 565.23C320.67 565.23 322.2 503.42 322.35 486.92C305.41 449.72 247.01 351.97 229.31 344.43C225.08 347 220.28 348.37 215.28 348.37C196.61 348.37 47.28 348.37 28.61 348.37C12.75 348.37 0 335.55 0 319.77C0 293.97 0.02 87.57 0.02 61.77C1.13 47.87 12.95 36.96 26.91 36.96C43.68 36.96 177.81 36.96 194.58 36.96C209.45 36.96 221.54 49.05 221.54 63.92C221.54 64.77 221.54 71.62 221.54 72.48C221.54 72.48 227.77 72.95 230.6 71.13C241.38 64.28 254.7 55.67 272.08 55.67C297.1 55.67 497.27 55.67 522.29 55.67C615.84 55.67 605.8 138.7 597.25 150.03C613.06 167.24 622.83 197.59 609.49 221.57C619.73 232.42 637.75 262.26 621.62 293.16C654.04 325.44 644.03 390.72 587.87 390.72ZM26.86 63.97L26.86 321.45L188.82 321.45L188.82 63.97L26.86 63.97ZM576.45 289C619.56 276.74 596.61 227.06 565.69 223.84C565.54 223.2 564.32 218.1 564.16 217.46C605.5 206.95 585.78 155.8 553.4 152.3C553.25 151.67 552.03 146.59 551.88 145.95C585.63 140.41 577.46 82.81 526.32 82.81C500.87 82.8 297.27 82.72 271.82 82.71C253.85 82.71 237.48 103.19 224.26 103.19C223.49 103.19 219.65 103.19 212.72 103.19C212.72 222.11 212.72 288.17 212.72 301.38C227.1 310.29 244.78 321.86 254.6 330.21C273.16 346.04 349.13 468.81 349.13 484.17C349.13 499.53 347.46 566 347.46 566C347.46 566 362.35 585.2 395.61 571.19C395.61 571.19 423.6 518.71 426.45 476.88C426.45 476.88 413.85 390.72 407.08 363.69C424.72 363.69 565.87 363.69 583.52 363.69C626.87 363.64 618.6 301.75 577.98 295.38C577.67 294.1 576.6 289.64 576.45 289Z" id="b2uIf08vxJ"></path></defs><g><g><g><use xlink:href="#b2uIf08vxJ" opacity="1" fill="#010002" fill-opacity="1"></use><g><use xlink:href="#b2uIf08vxJ" opacity="1" fill-opacity="0" stroke="#000000" stroke-width="1" stroke-opacity="0"></use></g></g></g></g></svg>