<?xml version="1.0" encoding="UTF-8" standalone="no"?>
<!DOCTYPE svg PUBLIC "-//W3C//DTD SVG 1.1//EN" "http://www.w3.org/Graphics/SVG/1.1/DTD/svg11.dtd">
<svg version="1.1" xmlns="http://www.w3.org/2000/svg" xmlns:xlink="http://www.w3.org/1999/xlink" preserveAspectRatio="xMidYMid meet" viewBox="0 0 640 640" width="640" height="640"><defs><path d="M587.87 249.28C573.1 249.29 454.89 249.37 440.12 249.38C445.73 218.09 453.85 166.22 453.53 161.33C450.43 114.94 420.86 58.5 419.59 56.18C414.19 46.14 386.97 32.53 359.57 38.36C324.14 45.94 320.53 68.54 320.67 74.77C320.67 74.77 322.2 136.59 322.35 153.08C305.41 190.28 247.01 288.04 229.31 295.57C225.08 293.01 220.28 291.63 215.28 291.63C196.61 291.63 47.28 291.63 28.61 291.63C12.75 291.63 0 304.45 0 320.23C0 346.03 0.02 552.43 0.02 578.23C1.13 592.14 12.95 603.05 26.91 603.05C43.68 603.05 177.81 603.05 194.58 603.05C209.45 603.05 221.54 590.96 221.54 576.09C221.54 575.23 221.54 568.38 221.54 567.52C221.54 567.52 227.77 567.06 230.6 568.88C241.38 575.72 254.7 584.34 272.08 584.34C297.1 584.34 497.27 584.34 522.29 584.34C615.84 584.34 605.8 501.3 597.25 489.98C613.06 472.77 622.83 442.41 609.49 418.43C619.73 407.58 637.75 377.74 621.62 346.84C654.04 314.57 644.03 249.28 587.87 249.28ZM26.86 576.04L26.86 318.56L188.82 318.56L188.82 576.04L26.86 576.04ZM576.45 351C619.56 363.26 596.61 412.94 565.69 416.17C565.54 416.8 564.32 421.9 564.16 422.54C605.5 433.05 585.78 484.21 553.4 487.7C553.25 488.34 552.03 493.42 551.88 494.05C585.63 499.59 577.46 557.2 526.32 557.2C500.87 557.21 297.27 557.29 271.82 557.3C253.85 557.3 237.48 536.81 224.26 536.81C223.49 536.81 219.65 536.81 212.72 536.81C212.72 417.9 212.72 351.83 212.72 338.62C227.1 329.71 244.78 318.14 254.6 309.79C273.16 293.96 349.13 171.2 349.13 155.83C349.13 140.47 347.46 74 347.46 74C347.46 74 362.35 54.8 395.61 68.81C395.61 68.81 423.6 121.29 426.45 163.12C426.45 163.12 413.85 249.28 407.08 276.31C424.72 276.31 565.87 276.31 583.52 276.31C626.87 276.36 618.6 338.25 577.98 344.63C577.67 345.9 576.6 350.37 576.45 351Z" id="cl9M9DqgN"></path></defs><g><g><g><use xlink:href="#cl9M9DqgN" opacity="1" fill="#010002" fill-opacity="1"></use><g><use xlink:href="#cl9M9DqgN" opacity="1" fill-opacity="0" stroke="#000000" stroke-width="1" stroke-opacity="0"></use></g></g></g></g></svg>